<?xml version="1.0" encoding="UTF-8"?>
<svg xmlns="http://www.w3.org/2000/svg" style="stroke-dasharray:none; shape-rendering:auto; font-family:'Arial'; text-rendering:auto; fill-opacity:1; color-interpolation:auto; color-rendering:auto; font-size:12; fill:black; stroke:black; image-rendering:auto; stroke-miterlimit:10; stroke-linecap:square; stroke-linejoin:miter; font-style:normal; stroke-width:1; stroke-dashoffset:0; font-weight:normal; stroke-opacity:1;" contentScriptType="text/ecmascript" preserveAspectRatio="xMidYMid meet" zoomAndPan="magnify" version="1.0" contentStyleType="text/css" xml:xlink="http://www.w3.org/1999/xlink" width="1281" height="621"><rect x="10" y="10" width="831" height="290" ry="0" rx="0" style="stroke:#000000; fill:#FFFFFF" /><rect x="40" y="10" width="801" height="290" ry="0" rx="0" style="stroke:#000000; fill:#C0C0C0" /><g sequence="4"><ellipse cx="117" cy="147" rx="17" ry="17" stroke-width="1" style="fill:url(#linearGradient66FF6696FF96B6FFB6_1184761899);" stroke="336633" /></g><g sequence="5"><rect x="290" y="110" width="105" height="76" ry="5" rx="5" style="fill:url(#linearGradientF8FBFEEDF5FCDEEDFAD4E7F8E2E5E9_1213857416);" stroke="191970" /></g><g componentSequence="5"><text x="342" y="125" text-anchor="middle" style="font-weight:bold;font-size:10px;stroke:none; fill:#333399"><tspan dy="14" x="342">Executar</tspan><tspan dy="14" x="342">atividade</tspan></text></g><g sequence="7"><ellipse cx="577" cy="147" rx="17" ry="17" stroke-width="3" style="fill:url(#linearGradientFF6666FF9696FFB6B6_1281778523);" stroke="993333" /></g><g componentSequence="3"><text x="100" y="340" style="font-size:10px;font-weight:none;stroke:none; fill:#333399" text-anchor="left"><tspan dy="14" x="100">Enviar para Análise</tspan></text></g><g componentSequence="5"><text x="463" y="327" style="font-size:10px;font-weight:none;stroke:none; fill:#333399" text-anchor="left" /></g><g componentSequence="7"><text x="430" y="222" style="font-size:10px;font-weight:none;stroke:none; fill:#333399" text-anchor="left"><tspan dy="14" x="430">Carece informações</tspan></text></g><g componentSequence="8"><text x="323" y="174" style="font-size:10px;font-weight:none;stroke:none; fill:#333399" text-anchor="left" /></g><g componentSequence="10"><text x="625" y="338" style="font-size:10px;font-weight:none;stroke:none; fill:#333399" text-anchor="left"><tspan dy="14" x="625">Possui inconsistência</tspan></text></g><g componentSequence="12"><text x="580" y="226" style="font-size:10px;font-weight:none;stroke:none; fill:#333399" text-anchor="left"><tspan dy="14" x="580">Resolvido</tspan></text></g><g componentSequence="14"><text x="828" y="137" style="font-size:10px;font-weight:none;stroke:none; fill:#333399" text-anchor="left" /></g><g componentSequence="15"><text x="700" y="390" style="font-size:10px;font-weight:none;stroke:none; fill:#333399" text-anchor="left"><tspan dy="14" x="700">Não resolvido</tspan></text></g><g componentSequence="17"><text x="960" y="150" style="font-size:10px;font-weight:none;stroke:none; fill:#333399" text-anchor="left"><tspan dy="14" x="960">Resolvido</tspan></text></g><g componentSequence="23"><text x="530" y="504" style="font-size:10px;font-weight:none;stroke:none; fill:#333399" text-anchor="left"><tspan dy="14" x="530">Serviços contratados</tspan></text></g><g componentSequence="21"><text x="337" y="550" style="font-size:10px;font-weight:none;stroke:none; fill:#333399" text-anchor="left"><tspan dy="14" x="337">Enviar para Execução</tspan></text></g><path style="fill:none; stroke:#000000;stroke-width:1" d="M167.0 135.0 L167.0 328.0 L259.0 328.0" /><polygon style="fill:#000000; stroke:#000000;" points=" 249 323 259 328 249 333 251 328" /><path style="fill:none; stroke:#000000;stroke-width:1" d="M366.0 327.0 L539.0 326.0" /><polygon style="fill:#000000; stroke:#000000;" points=" 529 321 539 326 529 331 531 326" /><path style="fill:none; stroke:#000000;stroke-width:1" d="M389.0 134.0 L313.0 134.0 L313.0 289.0" /><polygon style="fill:#000000; stroke:#000000;" points=" 318 279 313 289 308 279 313 281" /><path style="fill:none; stroke:#000000;stroke-width:1" d="M909.0 182.0 L909.0 440.0 L311.0 440.0 L312.0 366.0" /><polygon style="fill:#000000; stroke:#000000;" points=" 307 376 312 366 317 376 312 374" /><path style="fill:none; stroke:#000000;stroke-width:1" d="M732.0 526.0 L732.0 570.0 L315.0 570.0 L313.0 366.0" /><polygon style="fill:#000000; stroke:#000000;" points=" 308 376 313 366 318 376 313 374" /><path style="fill:none; stroke:#000000;stroke-width:1" d="M569.0 279.0 L569.0 134.0 L496.0 134.0" /><polygon style="fill:#000000; stroke:#000000;" points=" 506 139 496 134 506 129 504 134" /><path style="fill:none; stroke:#000000;stroke-width:1" d="M600.0 326.0 L790.0 327.0" /><polygon style="fill:#000000; stroke:#000000;" points=" 780 322 790 327 780 332 782 327" /><path style="fill:none; stroke:#000000;stroke-width:1" d="M570.0 279.0 L570.0 137.0 L649.0 137.0" /><polygon style="fill:#000000; stroke:#000000;" points=" 639 132 649 137 639 142 641 137" /><path style="fill:none; stroke:#000000;stroke-width:1" d="M756.0 137.0 L879.0 136.0" /><polygon style="fill:#000000; stroke:#000000;" points=" 869 131 879 136 869 141 871 136" /><path style="fill:none; stroke:#000000;stroke-width:1" d="M940.0 134.0 L1040.0 129.0" /><polygon style="fill:#000000; stroke:#000000;" points=" 1030 125 1040 129 1030 134 1032 129" /><path style="fill:none; stroke:#000000;stroke-width:1" d="M570.0 372.0 L570.0 497.0 L679.0 496.0" /><polygon style="fill:#000000; stroke:#000000;" points=" 669 491 679 496 669 501 671 496" /><defs><linearGradient xmlns:xlink="http://www.w3.org/1999/xlink" xlink:href="#linearGradient66FF6696FF96B6FFB6" id="linearGradient66FF6696FF96B6FFB6_1184761899" x1="0" y1="130.0" x2="0" y2="165.0" gradientUnits="userSpaceOnUse" xlink:type="simple" xlink:actuate="onLoad" xlink:show="other" /><linearGradient id="linearGradient66FF6696FF96B6FFB6"><stop style="stop-color:#66FF66;stop-opacity:1;" offset="0.0" id="stop66FF66" /><stop style="stop-color:#96FF96;stop-opacity:1;" offset="0.5" id="stop96FF96" /><stop style="stop-color:#B6FFB6;stop-opacity:1;" offset="1.0" id="stopB6FFB6" /></linearGradient><linearGradient xmlns:xlink="http://www.w3.org/1999/xlink" xlink:href="#linearGradientF8FBFEEDF5FCDEEDFAD4E7F8E2E5E9" id="linearGradientF8FBFEEDF5FCDEEDFAD4E7F8E2E5E9_1213857416" x1="0" y1="110.0" x2="0" y2="215.0" gradientUnits="userSpaceOnUse" xlink:type="simple" xlink:actuate="onLoad" xlink:show="other" /><linearGradient id="linearGradientF8FBFEEDF5FCDEEDFAD4E7F8E2E5E9"><stop style="stop-color:#F8FBFE;stop-opacity:1;" offset="0.0" id="stopF8FBFE" /><stop style="stop-color:#EDF5FC;stop-opacity:1;" offset="0.25" id="stopEDF5FC" /><stop style="stop-color:#DEEDFA;stop-opacity:1;" offset="0.5" id="stopDEEDFA" /><stop style="stop-color:#D4E7F8;stop-opacity:1;" offset="0.75" id="stopD4E7F8" /><stop style="stop-color:#E2E5E9;stop-opacity:1;" offset="1.0" id="stopE2E5E9" /></linearGradient><linearGradient xmlns:xlink="http://www.w3.org/1999/xlink" xlink:href="#linearGradientFF6666FF9696FFB6B6" id="linearGradientFF6666FF9696FFB6B6_1281778523" x1="0" y1="130.0" x2="0" y2="165.0" gradientUnits="userSpaceOnUse" xlink:type="simple" xlink:actuate="onLoad" xlink:show="other" /><linearGradient id="linearGradientFF6666FF9696FFB6B6"><stop style="stop-color:#FF6666;stop-opacity:1;" offset="0.0" id="stopFF6666" /><stop style="stop-color:#FF9696;stop-opacity:1;" offset="0.5" id="stopFF9696" /><stop style="stop-color:#FFB6B6;stop-opacity:1;" offset="1.0" id="stopFFB6B6" /></linearGradient></defs></svg>
