<?xml version="1.0" encoding="UTF-8"?>
<svg xmlns="http://www.w3.org/2000/svg" style="stroke-dasharray:none; shape-rendering:auto; font-family:'Arial'; text-rendering:auto; fill-opacity:1; color-interpolation:auto; color-rendering:auto; font-size:12; fill:black; stroke:black; image-rendering:auto; stroke-miterlimit:10; stroke-linecap:square; stroke-linejoin:miter; font-style:normal; stroke-width:1; stroke-dashoffset:0; font-weight:normal; stroke-opacity:1;" contentScriptType="text/ecmascript" preserveAspectRatio="xMidYMid meet" zoomAndPan="magnify" version="1.0" contentStyleType="text/css" xml:xlink="http://www.w3.org/1999/xlink" width="1471" height="561"><rect x="11" y="6" width="1460" height="555" ry="0" rx="0" style="stroke:#000000; fill:#FFFFFF" /><rect x="41" y="376" width="1430" height="185" ry="0" rx="0" style="stroke:#000000; fill:#D0DAAE" /><g componentSequence="4"><text x="-468" y="49" transform="rotate(270)" text-anchor="middle" style="font-weight:bold;font-size:10px;stroke:none; fill:#434343"><tspan dy="14" x="-468">Compras</tspan></text></g><rect x="41" y="191" width="1430" height="185" ry="0" rx="0" style="stroke:#000000; fill:#ADC9AC" /><g componentSequence="3"><text x="-283" y="49" transform="rotate(270)" text-anchor="middle" style="font-weight:bold;font-size:10px;stroke:none; fill:#434343"><tspan dy="14" x="-283">Gestor do Centro de Custo</tspan></text></g><rect x="41" y="6" width="1430" height="185" ry="0" rx="0" style="stroke:#000000; fill:#82B0B7" /><g componentSequence="2"><text x="-98" y="49" transform="rotate(270)" text-anchor="middle" style="font-weight:bold;font-size:10px;stroke:none; fill:#434343"><tspan dy="14" x="-98">Solicitante</tspan></text></g><g componentSequence="1"><text x="-283" y="19" transform="rotate(270)" text-anchor="middle" style="font-weight:bold;font-size:10px;stroke:none; fill:#434343"><tspan dy="14" x="-283">Solicitação de compras</tspan></text></g><g sequence="1"><ellipse cx="137" cy="100" rx="17" ry="17" stroke-width="1" style="fill:url(#linearGradient66FF6696FF96B6FFB6_1558981942);" stroke="336633" /></g><g sequence="2"><polygon points=" 240 70 270 40 300 70 270 100 240 70" style="fill:url(#linearGradientFAFBFCFFFFCC_1378605275);" stroke="000000" /></g><g componentSequence="2"><text x="270" y="110" text-anchor="middle" style="font-weight:bold;font-size:10px;stroke:none; fill:#333399"><tspan dy="14" x="270">Validar</tspan><tspan dy="14" x="270">CC</tspan></text></g><g sequence="4"><rect x="520" y="210" width="106" height="108" ry="5" rx="5" style="fill:url(#linearGradientF8FBFEEDF5FCDEEDFAD4E7F8E2E5E9_1444169286);" stroke="191970" /></g><g componentSequence="4"><text x="573" y="225" text-anchor="middle" style="font-weight:bold;font-size:10px;stroke:none; fill:#333399"><tspan dy="14" x="573">Analisar</tspan><tspan dy="14" x="573">centro de</tspan><tspan dy="14" x="573">custo da</tspan><tspan dy="14" x="573">solicitação</tspan></text></g><g sequence="6"><rect x="520" y="410" width="106" height="92" ry="5" rx="5" style="fill:url(#linearGradientF8FBFEEDF5FCDEEDFAD4E7F8E2E5E9_320262880);" stroke="191970" /></g><g componentSequence="6"><text x="573" y="425" text-anchor="middle" style="font-weight:bold;font-size:10px;stroke:none; fill:#333399"><tspan dy="14" x="573">Analisar</tspan><tspan dy="14" x="573">solicitação de</tspan><tspan dy="14" x="573">compra</tspan></text></g><g sequence="18"><rect x="1080" y="60" width="106" height="108" ry="5" rx="5" style="fill:url(#linearGradientF8FBFEEDF5FCDEEDFAD4E7F8E2E5E9_783210537);" stroke="191970" /></g><g componentSequence="18"><text x="1133" y="75" text-anchor="middle" style="font-weight:bold;font-size:10px;stroke:none; fill:#333399"><tspan dy="14" x="1133">Receber e</tspan><tspan dy="14" x="1133">validar o</tspan><tspan dy="14" x="1133">produto/serviç</tspan><tspan dy="14" x="1133">o</tspan></text></g><g sequence="24"><rect x="1260" y="424" width="106" height="76" ry="5" rx="5" style="fill:url(#linearGradientF8FBFEEDF5FCDEEDFAD4E7F8E2E5E9_583999527);" stroke="191970" /></g><g componentSequence="24"><text x="1313" y="439" text-anchor="middle" style="font-weight:bold;font-size:10px;stroke:none; fill:#333399"><tspan dy="14" x="1313">Verificar</tspan><tspan dy="14" x="1313">problema</tspan></text></g><g sequence="31"><rect x="940" y="420" width="106" height="76" ry="5" rx="5" style="fill:url(#linearGradientF8FBFEEDF5FCDEEDFAD4E7F8E2E5E9_1453159502);" stroke="191970" /></g><g componentSequence="31"><text x="993" y="435" text-anchor="middle" style="font-weight:bold;font-size:10px;stroke:none; fill:#333399"><tspan dy="14" x="993">Realizar</tspan><tspan dy="14" x="993">compra</tspan></text></g><g sequence="39"><ellipse cx="787" cy="257" rx="17" ry="17" stroke-width="3" style="fill:url(#linearGradientFF6666FF9696FFB6B6_1933127087);" stroke="993333" /></g><g sequence="39"><polygon points=" 778 253 783 248 788 253 793 248 798 253 793 258 798 263 793 268 788 263 783 268 778 263 783 258" style="stroke:none; fill:#993333" /></g><g sequence="46"><polygon points=" 1280 90 1310 60 1340 90 1310 120 1280 90" style="fill:url(#linearGradientFAFBFCFFFFCC_730782833);" stroke="000000" /></g><g componentSequence="46"><text x="1310" y="130" text-anchor="middle" style="font-weight:bold;font-size:10px;stroke:none; fill:#333399"><tspan dy="14" x="1310">Validar</tspan><tspan dy="14" x="1310">compra</tspan></text></g><g sequence="52"><ellipse cx="1427" cy="107" rx="17" ry="17" stroke-width="3" style="fill:url(#linearGradientFF6666FF9696FFB6B6_1880825663);" stroke="993333" /></g><g sequence="55"><ellipse cx="667" cy="527" rx="17" ry="17" stroke-width="3" style="fill:url(#linearGradientFF6666FF9696FFB6B6_1301887606);" stroke="993333" /></g><g sequence="55"><polygon points=" 658 523 663 518 668 523 673 518 678 523 673 528 678 533 673 538 668 533 663 538 658 533 663 528" style="stroke:none; fill:#993333" /></g><g sequence="57"><rect x="750" y="420" width="106" height="76" ry="5" rx="5" style="fill:url(#linearGradientF8FBFEEDF5FCDEEDFAD4E7F8E2E5E9_2004300351);" stroke="191970" /></g><g componentSequence="57"><text x="803" y="435" text-anchor="middle" style="font-weight:bold;font-size:10px;stroke:none; fill:#333399"><tspan dy="14" x="803">Autorizar</tspan><tspan dy="14" x="803">cotação</tspan></text></g><g sequence="60"><ellipse cx="897" cy="527" rx="17" ry="17" stroke-width="3" style="fill:url(#linearGradientFF6666FF9696FFB6B6_717690356);" stroke="993333" /></g><g sequence="60"><polygon points=" 888 523 893 518 898 523 903 518 908 523 903 528 908 533 903 538 898 533 893 538 888 533 893 528" style="stroke:none; fill:#993333" /></g><g componentSequence="3"><text x="202" y="100" style="font-size:10px;font-weight:none;stroke:none; fill:#333399" text-anchor="left" /></g><g componentSequence="5"><text x="352" y="241" style="font-size:10px;font-weight:none;stroke:none; fill:#333399" text-anchor="left"><tspan dy="14" x="352">CC identificado</tspan></text></g><g componentSequence="7"><text x="300" y="430" style="font-size:10px;font-weight:none;stroke:none; fill:#333399" text-anchor="left"><tspan dy="14" x="300">Sem CC</tspan></text></g><g componentSequence="26"><text x="1142" y="378" style="font-size:10px;font-weight:none;stroke:none; fill:#333399" text-anchor="left" /></g><g componentSequence="33"><text x="1002" y="218" style="font-size:10px;font-weight:none;stroke:none; fill:#333399" text-anchor="left" /></g><g componentSequence="41"><text x="550" y="385" style="font-size:10px;font-weight:none;stroke:none; fill:#333399" text-anchor="left"><tspan dy="14" x="550">Aprovar</tspan></text></g><g componentSequence="47"><text x="1243" y="114" style="font-size:10px;font-weight:none;stroke:none; fill:#333399" text-anchor="left" /></g><g componentSequence="48"><text x="1321" y="296" style="font-size:10px;font-weight:none;stroke:none; fill:#333399" text-anchor="left"><tspan dy="14" x="1321">Reprovar</tspan></text></g><g componentSequence="49"><text x="1345" y="84" style="font-size:10px;font-weight:none;stroke:none; fill:#333399" text-anchor="left"><tspan dy="14" x="1345">Aprovar</tspan></text></g><g componentSequence="53"><text x="665" y="240" style="font-size:10px;font-weight:none;stroke:none; fill:#333399" text-anchor="left"><tspan dy="14" x="665">Reprovar</tspan></text></g><g componentSequence="56"><text x="601" y="527" style="font-size:10px;font-weight:none;stroke:none; fill:#333399" text-anchor="left"><tspan dy="14" x="601">Reprovar</tspan></text></g><g componentSequence="58"><text x="640" y="420" style="font-size:10px;font-weight:none;stroke:none; fill:#333399" text-anchor="left"><tspan dy="14" x="640">Aprovar</tspan></text></g><g componentSequence="59"><text x="870" y="429" style="font-size:10px;font-weight:none;stroke:none; fill:#333399" text-anchor="left"><tspan dy="14" x="870">Aprovar</tspan></text></g><g componentSequence="61"><text x="859" y="527" style="font-size:10px;font-weight:none;stroke:none; fill:#333399" text-anchor="left"><tspan dy="14" x="859">Cancelar</tspan></text></g><path style="fill:none; stroke:#000000;stroke-width:1" d="M134.0 100.0 L249.0 100.0" /><polygon style="fill:#000000; stroke:#000000;" points=" 239 95 249 100 239 105 241 100" /><path style="fill:none; stroke:#000000;stroke-width:1" d="M310.0 100.0 L342.0 100.0 L342.0 266.0 L489.0 266.0" /><polygon style="fill:#000000; stroke:#000000;" points=" 479 261 489 266 479 271 481 266" /><path style="fill:none; stroke:#000000;stroke-width:1" d="M279.0 155.0 L279.0 448.0 L489.0 448.0" /><polygon style="fill:#000000; stroke:#000000;" points=" 479 443 489 448 479 453 481 448" /><path style="fill:none; stroke:#000000;stroke-width:1" d="M543.0 312.0 L543.0 409.0" /><polygon style="fill:#000000; stroke:#000000;" points=" 548 399 543 409 538 399 543 401" /><path style="fill:none; stroke:#000000;stroke-width:1" d="M596.0 266.0 L760.0 268.0" /><polygon style="fill:#000000; stroke:#000000;" points=" 750 263 760 268 750 273 752 268" /><path style="fill:none; stroke:#000000;stroke-width:1" d="M543.0 486.0 L543.0 527.0 L679.0 527.0" /><polygon style="fill:#000000; stroke:#000000;" points=" 669 522 679 527 669 532 671 527" /><path style="fill:none; stroke:#000000;stroke-width:1" d="M596.0 447.0 L749.0 446.0" /><polygon style="fill:#000000; stroke:#000000;" points=" 739 441 749 446 739 451 741 446" /><path style="fill:none; stroke:#000000;stroke-width:1" d="M1186.0 114.0 L1279.0 114.0" /><polygon style="fill:#000000; stroke:#000000;" points=" 1269 109 1279 114 1269 119 1271 114" /><path style="fill:none; stroke:#000000;stroke-width:1" d="M1259.0 461.0 L1132.0 461.0 L1132.0 168.0" /><polygon style="fill:#000000; stroke:#000000;" points=" 1127 178 1132 168 1137 178 1132 176" /><path style="fill:none; stroke:#000000;stroke-width:1" d="M992.0 409.0 L992.0 113.0 L1079.0 113.0" /><polygon style="fill:#000000; stroke:#000000;" points=" 1069 108 1079 113 1069 118 1071 113" /><path style="fill:none; stroke:#000000;stroke-width:1" d="M1310.0 168.0 L1312.0 423.0" /><polygon style="fill:#000000; stroke:#000000;" points=" 1317 413 1312 423 1307 413 1312 415" /><path style="fill:none; stroke:#000000;stroke-width:1" d="M856.0 446.0 L939.0 447.0" /><polygon style="fill:#000000; stroke:#000000;" points=" 929 442 939 447 929 452 931 447" /><path style="fill:none; stroke:#000000;stroke-width:1" d="M1340.0 112.0 L1410.0 108.0" /><polygon style="fill:#000000; stroke:#000000;" points=" 1400 104 1410 108 1400 114 1402 108" /><path style="fill:none; stroke:#000000;stroke-width:1" d="M803.0 492.0 L803.0 527.0 L929.0 527.0" /><polygon style="fill:#000000; stroke:#000000;" points=" 919 522 929 527 919 532 921 527" /><defs><linearGradient xmlns:xlink="http://www.w3.org/1999/xlink" xlink:href="#linearGradient66FF6696FF96B6FFB6" id="linearGradient66FF6696FF96B6FFB6_1558981942" x1="0" y1="83.0" x2="0" y2="118.0" gradientUnits="userSpaceOnUse" xlink:type="simple" xlink:actuate="onLoad" xlink:show="other" /><linearGradient id="linearGradient66FF6696FF96B6FFB6"><stop style="stop-color:#66FF66;stop-opacity:1;" offset="0.0" id="stop66FF66" /><stop style="stop-color:#96FF96;stop-opacity:1;" offset="0.5" id="stop96FF96" /><stop style="stop-color:#B6FFB6;stop-opacity:1;" offset="1.0" id="stopB6FFB6" /></linearGradient><linearGradient xmlns:xlink="http://www.w3.org/1999/xlink" xlink:href="#linearGradientFAFBFCFFFFCC" id="linearGradientFAFBFCFFFFCC_1378605275" x1="0" y1="40.0" x2="0" y2="100.0" gradientUnits="userSpaceOnUse" xlink:type="simple" xlink:actuate="onLoad" xlink:show="other" /><linearGradient id="linearGradientFAFBFCFFFFCC"><stop style="stop-color:#FAFBFC;stop-opacity:1;" offset="0.0" id="stopFAFBFC" /><stop style="stop-color:#FFFFCC;stop-opacity:1;" offset="1.0" id="stopFFFFCC" /></linearGradient><linearGradient xmlns:xlink="http://www.w3.org/1999/xlink" xlink:href="#linearGradientF8FBFEEDF5FCDEEDFAD4E7F8E2E5E9" id="linearGradientF8FBFEEDF5FCDEEDFAD4E7F8E2E5E9_1444169286" x1="0" y1="210.0" x2="0" y2="316.0" gradientUnits="userSpaceOnUse" xlink:type="simple" xlink:actuate="onLoad" xlink:show="other" /><linearGradient id="linearGradientF8FBFEEDF5FCDEEDFAD4E7F8E2E5E9"><stop style="stop-color:#F8FBFE;stop-opacity:1;" offset="0.0" id="stopF8FBFE" /><stop style="stop-color:#EDF5FC;stop-opacity:1;" offset="0.25" id="stopEDF5FC" /><stop style="stop-color:#DEEDFA;stop-opacity:1;" offset="0.5" id="stopDEEDFA" /><stop style="stop-color:#D4E7F8;stop-opacity:1;" offset="0.75" id="stopD4E7F8" /><stop style="stop-color:#E2E5E9;stop-opacity:1;" offset="1.0" id="stopE2E5E9" /></linearGradient><linearGradient xmlns:xlink="http://www.w3.org/1999/xlink" xlink:href="#linearGradientF8FBFEEDF5FCDEEDFAD4E7F8E2E5E9" id="linearGradientF8FBFEEDF5FCDEEDFAD4E7F8E2E5E9_320262880" x1="0" y1="410.0" x2="0" y2="516.0" gradientUnits="userSpaceOnUse" xlink:type="simple" xlink:actuate="onLoad" xlink:show="other" /><linearGradient xmlns:xlink="http://www.w3.org/1999/xlink" xlink:href="#linearGradientF8FBFEEDF5FCDEEDFAD4E7F8E2E5E9" id="linearGradientF8FBFEEDF5FCDEEDFAD4E7F8E2E5E9_783210537" x1="0" y1="60.0" x2="0" y2="166.0" gradientUnits="userSpaceOnUse" xlink:type="simple" xlink:actuate="onLoad" xlink:show="other" /><linearGradient xmlns:xlink="http://www.w3.org/1999/xlink" xlink:href="#linearGradientF8FBFEEDF5FCDEEDFAD4E7F8E2E5E9" id="linearGradientF8FBFEEDF5FCDEEDFAD4E7F8E2E5E9_583999527" x1="0" y1="424.0" x2="0" y2="530.0" gradientUnits="userSpaceOnUse" xlink:type="simple" xlink:actuate="onLoad" xlink:show="other" /><linearGradient xmlns:xlink="http://www.w3.org/1999/xlink" xlink:href="#linearGradientF8FBFEEDF5FCDEEDFAD4E7F8E2E5E9" id="linearGradientF8FBFEEDF5FCDEEDFAD4E7F8E2E5E9_1453159502" x1="0" y1="420.0" x2="0" y2="526.0" gradientUnits="userSpaceOnUse" xlink:type="simple" xlink:actuate="onLoad" xlink:show="other" /><linearGradient xmlns:xlink="http://www.w3.org/1999/xlink" xlink:href="#linearGradientFF6666FF9696FFB6B6" id="linearGradientFF6666FF9696FFB6B6_1933127087" x1="0" y1="240.0" x2="0" y2="275.0" gradientUnits="userSpaceOnUse" xlink:type="simple" xlink:actuate="onLoad" xlink:show="other" /><linearGradient id="linearGradientFF6666FF9696FFB6B6"><stop style="stop-color:#FF6666;stop-opacity:1;" offset="0.0" id="stopFF6666" /><stop style="stop-color:#FF9696;stop-opacity:1;" offset="0.5" id="stopFF9696" /><stop style="stop-color:#FFB6B6;stop-opacity:1;" offset="1.0" id="stopFFB6B6" /></linearGradient><linearGradient xmlns:xlink="http://www.w3.org/1999/xlink" xlink:href="#linearGradientFAFBFCFFFFCC" id="linearGradientFAFBFCFFFFCC_730782833" x1="0" y1="60.0" x2="0" y2="120.0" gradientUnits="userSpaceOnUse" xlink:type="simple" xlink:actuate="onLoad" xlink:show="other" /><linearGradient xmlns:xlink="http://www.w3.org/1999/xlink" xlink:href="#linearGradientFF6666FF9696FFB6B6" id="linearGradientFF6666FF9696FFB6B6_1880825663" x1="0" y1="90.0" x2="0" y2="125.0" gradientUnits="userSpaceOnUse" xlink:type="simple" xlink:actuate="onLoad" xlink:show="other" /><linearGradient xmlns:xlink="http://www.w3.org/1999/xlink" xlink:href="#linearGradientFF6666FF9696FFB6B6" id="linearGradientFF6666FF9696FFB6B6_1301887606" x1="0" y1="510.0" x2="0" y2="545.0" gradientUnits="userSpaceOnUse" xlink:type="simple" xlink:actuate="onLoad" xlink:show="other" /><linearGradient xmlns:xlink="http://www.w3.org/1999/xlink" xlink:href="#linearGradientF8FBFEEDF5FCDEEDFAD4E7F8E2E5E9" id="linearGradientF8FBFEEDF5FCDEEDFAD4E7F8E2E5E9_2004300351" x1="0" y1="420.0" x2="0" y2="526.0" gradientUnits="userSpaceOnUse" xlink:type="simple" xlink:actuate="onLoad" xlink:show="other" /><linearGradient xmlns:xlink="http://www.w3.org/1999/xlink" xlink:href="#linearGradientFF6666FF9696FFB6B6" id="linearGradientFF6666FF9696FFB6B6_717690356" x1="0" y1="510.0" x2="0" y2="545.0" gradientUnits="userSpaceOnUse" xlink:type="simple" xlink:actuate="onLoad" xlink:show="other" /></defs></svg>
