<?xml version="1.0" encoding="UTF-8"?>
<svg xmlns="http://www.w3.org/2000/svg" style="stroke-dasharray:none; shape-rendering:auto; font-family:'Arial'; text-rendering:auto; fill-opacity:1; color-interpolation:auto; color-rendering:auto; font-size:12; fill:black; stroke:black; image-rendering:auto; stroke-miterlimit:10; stroke-linecap:square; stroke-linejoin:miter; font-style:normal; stroke-width:1; stroke-dashoffset:0; font-weight:normal; stroke-opacity:1;" contentScriptType="text/ecmascript" preserveAspectRatio="xMidYMid meet" zoomAndPan="magnify" version="1.0" contentStyleType="text/css" xml:xlink="http://www.w3.org/1999/xlink" width="1811" height="814"><rect x="20" y="20" width="1791" height="794" ry="0" rx="0" style="stroke:#000000; fill:#FFFFFF" /><rect x="50" y="614" width="1761" height="200" ry="0" rx="0" style="stroke:#000000; fill:#ADC9AC" /><g componentSequence="68"><text x="-714" y="58" transform="rotate(270)" text-anchor="middle" style="font-weight:bold;font-size:10px;stroke:none; fill:#434343"><tspan dy="14" x="-714">Motorista</tspan></text></g><rect x="50" y="20" width="1761" height="198" ry="0" rx="0" style="stroke:#000000; fill:#D6E0D0" /><g componentSequence="64"><text x="-119" y="58" transform="rotate(270)" text-anchor="middle" style="font-weight:bold;font-size:10px;stroke:none; fill:#434343"><tspan dy="14" x="-119">Analista de suprimentos</tspan></text></g><rect x="50" y="416" width="1761" height="198" ry="0" rx="0" style="stroke:#000000; fill:#D0DAAE" /><g componentSequence="4"><text x="-515" y="58" transform="rotate(270)" text-anchor="middle" style="font-weight:bold;font-size:10px;stroke:none; fill:#434343"><tspan dy="14" x="-515">Logistica</tspan></text></g><rect x="50" y="218" width="1761" height="198" ry="0" rx="0" style="stroke:#000000; fill:#82B0B7" /><g componentSequence="2"><text x="-317" y="58" transform="rotate(270)" text-anchor="middle" style="font-weight:bold;font-size:10px;stroke:none; fill:#434343"><tspan dy="14" x="-317">Gerente de loja</tspan></text></g><g componentSequence="1"><text x="-417" y="28" transform="rotate(270)" text-anchor="middle" style="font-weight:bold;font-size:10px;stroke:none; fill:#434343"><tspan dy="14" x="-417">Solicitação de Transferência</tspan></text></g><g sequence="1"><ellipse cx="117" cy="100" rx="17" ry="17" stroke-width="1" style="fill:url(#linearGradient66FF6696FF96B6FFB6_2022370373);" stroke="336633" /></g><g sequence="2"><polygon points=" 250 77 280 47 310 77 280 107 250 77" style="fill:url(#linearGradientFAFBFCFFFFCC_1984761124);" stroke="000000" /></g><g componentSequence="2"><text x="280" y="117" text-anchor="middle" style="font-weight:bold;font-size:10px;stroke:none; fill:#333399"><tspan dy="14" x="280">Validar</tspan><tspan dy="14" x="280">Loja</tspan></text></g><g sequence="4"><rect x="490" y="281" width="106" height="92" ry="5" rx="5" style="fill:url(#linearGradientF8FBFEEDF5FCDEEDFAD4E7F8E2E5E9_1920108341);" stroke="191970" /></g><g componentSequence="4"><text x="543" y="296" text-anchor="middle" style="font-weight:bold;font-size:10px;stroke:none; fill:#333399"><tspan dy="14" x="543">Aprovar</tspan><tspan dy="14" x="543">Transferência</tspan></text></g><g sequence="6"><rect x="490" y="490" width="106" height="76" ry="5" rx="5" style="fill:url(#linearGradientF8FBFEEDF5FCDEEDFAD4E7F8E2E5E9_930088735);" stroke="191970" /></g><g componentSequence="6"><text x="543" y="505" text-anchor="middle" style="font-weight:bold;font-size:10px;stroke:none; fill:#333399"><tspan dy="14" x="543">Emitir NFE</tspan><tspan dy="14" x="543">de Transf</tspan></text></g><g sequence="18"><rect x="1370" y="270" width="106" height="76" ry="5" rx="5" style="fill:url(#linearGradientF8FBFEEDF5FCDEEDFAD4E7F8E2E5E9_406269296);" stroke="191970" /></g><g componentSequence="18"><text x="1423" y="285" text-anchor="middle" style="font-weight:bold;font-size:10px;stroke:none; fill:#333399"><tspan dy="14" x="1423">Receber</tspan><tspan dy="14" x="1423">Produtos</tspan></text></g><g sequence="24"><rect x="1520" y="490" width="106" height="76" ry="5" rx="5" style="fill:url(#linearGradientF8FBFEEDF5FCDEEDFAD4E7F8E2E5E9_101529471);" stroke="191970" /></g><g componentSequence="24"><text x="1573" y="505" text-anchor="middle" style="font-weight:bold;font-size:10px;stroke:none; fill:#333399"><tspan dy="14" x="1573">Verificar</tspan><tspan dy="14" x="1573">problema</tspan></text></g><g sequence="31"><rect x="870" y="679" width="106" height="76" ry="5" rx="5" style="fill:url(#linearGradientF8FBFEEDF5FCDEEDFAD4E7F8E2E5E9_1621115812);" stroke="191970" /></g><g componentSequence="31"><text x="923" y="694" text-anchor="middle" style="font-weight:bold;font-size:10px;stroke:none; fill:#333399"><tspan dy="14" x="923">Coletar</tspan><tspan dy="14" x="923">Produto</tspan></text></g><g sequence="39"><ellipse cx="717" cy="327" rx="17" ry="17" stroke-width="3" style="fill:url(#linearGradientFF6666FF9696FFB6B6_1465907280);" stroke="993333" /></g><g sequence="39"><polygon points=" 708 323 713 318 718 323 723 318 728 323 723 328 728 333 723 338 718 333 713 338 708 333 713 328" style="stroke:none; fill:#993333" /></g><g sequence="46"><polygon points=" 1540 280 1570 250 1600 280 1570 310 1540 280" style="fill:url(#linearGradientFAFBFCFFFFCC_1981944678);" stroke="000000" /></g><g componentSequence="46"><text x="1570" y="320" text-anchor="middle" style="font-weight:bold;font-size:10px;stroke:none; fill:#333399"><tspan dy="14" x="1570">Validar</tspan><tspan dy="14" x="1570">produto</tspan></text></g><g sequence="52"><ellipse cx="1717" cy="301" rx="17" ry="17" stroke-width="3" style="fill:url(#linearGradientFF6666FF9696FFB6B6_427521042);" stroke="993333" /></g><g sequence="57"><rect x="1280" y="679" width="106" height="76" ry="5" rx="5" style="fill:url(#linearGradientF8FBFEEDF5FCDEEDFAD4E7F8E2E5E9_2074388986);" stroke="191970" /></g><g componentSequence="57"><text x="1333" y="694" text-anchor="middle" style="font-weight:bold;font-size:10px;stroke:none; fill:#333399"><tspan dy="14" x="1333">Entregar</tspan><tspan dy="14" x="1333">Produto</tspan></text></g><g sequence="60"><ellipse cx="1587" cy="716" rx="17" ry="17" stroke-width="3" style="fill:url(#linearGradientFF6666FF9696FFB6B6_1393640358);" stroke="993333" /></g><g sequence="60"><polygon points=" 1578 712 1583 707 1588 712 1593 707 1598 712 1593 717 1598 722 1593 727 1588 722 1583 727 1578 722 1583 717" style="stroke:none; fill:#993333" /></g><g sequence="62"><polygon points=" 760 500 790 470 820 500 790 530 760 500" style="fill:url(#linearGradientFAFBFCFFFFCC_894358401);" stroke="000000" /></g><g componentSequence="62"><text x="790" y="540" text-anchor="middle" style="font-weight:bold;font-size:10px;stroke:none; fill:#333399"><tspan dy="14" x="790">Validar</tspan><tspan dy="14" x="790">Coleta</tspan></text></g><g sequence="86"><ellipse cx="997" cy="527" rx="17" ry="17" stroke-width="3" style="fill:url(#linearGradientFF6666FF9696FFB6B6_2002254558);" stroke="993333" /></g><g sequence="90"><polygon points=" 1040 685 1070 655 1100 685 1070 715 1040 685" style="fill:url(#linearGradientFAFBFCFFFFCC_702703287);" stroke="000000" /></g><g componentSequence="90"><text x="1070" y="725" text-anchor="middle" style="font-weight:bold;font-size:10px;stroke:none; fill:#333399"><tspan dy="14" x="1070">Validar</tspan><tspan dy="14" x="1070">Entreg</tspan><tspan dy="14" x="1070">a</tspan></text></g><g sequence="93"><ellipse cx="1197" cy="627" rx="17" ry="17" stroke-width="3" style="fill:url(#linearGradientFF6666FF9696FFB6B6_1882659934);" stroke="993333" /></g><g componentSequence="3"><text x="202" y="100" style="font-size:10px;font-weight:none;stroke:none; fill:#333399" text-anchor="left" /></g><g componentSequence="5"><text x="360" y="294" style="font-size:10px;font-weight:none;stroke:none; fill:#333399" text-anchor="left"><tspan dy="14" x="360">Gestor Identificado</tspan></text></g><g componentSequence="7"><text x="340" y="509" style="font-size:10px;font-weight:none;stroke:none; fill:#333399" text-anchor="left"><tspan dy="14" x="340">Loja sem Gestor</tspan></text></g><g componentSequence="26"><text x="1432" y="486" style="font-size:10px;font-weight:none;stroke:none; fill:#333399" text-anchor="left" /></g><g componentSequence="41"><text x="490" y="468" style="font-size:10px;font-weight:none;stroke:none; fill:#333399" text-anchor="left"><tspan dy="14" x="490">Aprovar</tspan></text></g><g componentSequence="47"><text x="1518" y="305" style="font-size:10px;font-weight:none;stroke:none; fill:#333399" text-anchor="left" /></g><g componentSequence="48"><text x="1510" y="380" style="font-size:10px;font-weight:none;stroke:none; fill:#333399" text-anchor="left"><tspan dy="14" x="1510">Reprovar</tspan></text></g><g componentSequence="53"><text x="635" y="300" style="font-size:10px;font-weight:none;stroke:none; fill:#333399" text-anchor="left"><tspan dy="14" x="635">Reprovar</tspan></text></g><g componentSequence="61"><text x="1450" y="699" style="font-size:10px;font-weight:none;stroke:none; fill:#333399" text-anchor="left"><tspan dy="14" x="1450">Cancelar</tspan></text></g><g componentSequence="82"><text x="1660" y="302" style="font-size:10px;font-weight:none;stroke:none; fill:#333399" text-anchor="left" /></g><g componentSequence="84"><text x="660" y="700" style="font-size:10px;font-weight:none;stroke:none; fill:#333399" text-anchor="left"><tspan dy="14" x="660">Alocar motorista</tspan></text></g><g componentSequence="85"><text x="1146" y="549" style="font-size:10px;font-weight:none;stroke:none; fill:#333399" text-anchor="left"><tspan dy="14" x="1146">Validar produtos</tspan><tspan dy="14" x="1146">recebidos</tspan></text></g><g componentSequence="87"><text x="835" y="506" style="font-size:10px;font-weight:none;stroke:none; fill:#333399" text-anchor="left"><tspan dy="14" x="835">Processo finalizado</tspan></text></g><g componentSequence="88"><text x="630" y="530" style="font-size:10px;font-weight:none;stroke:none; fill:#333399" text-anchor="left"><tspan dy="14" x="630">Emitida</tspan></text></g><g componentSequence="91"><text x="1018" y="717" style="font-size:10px;font-weight:none;stroke:none; fill:#333399" text-anchor="left" /></g><g componentSequence="92"><text x="1200" y="717" style="font-size:10px;font-weight:none;stroke:none; fill:#333399" text-anchor="left" /></g><g componentSequence="94"><text x="1020" y="600" style="font-size:10px;font-weight:none;stroke:none; fill:#333399" text-anchor="left"><tspan dy="14" x="1020">Filial nao identificada</tspan></text></g><path style="fill:none; stroke:#000000;stroke-width:1" d="M134.0 100.0 L249.0 100.0" /><polygon style="fill:#000000; stroke:#000000;" points=" 239 95 249 100 239 105 241 100" /><path style="fill:none; stroke:#000000;stroke-width:1" d="M310.0 100.0 L342.0 100.0 L342.0 326.0 L489.0 326.0" /><polygon style="fill:#000000; stroke:#000000;" points=" 479 321 489 326 479 331 481 326" /><path style="fill:none; stroke:#000000;stroke-width:1" d="M279.0 155.0 L279.0 527.0 L489.0 527.0" /><polygon style="fill:#000000; stroke:#000000;" points=" 479 522 489 527 479 532 481 527" /><path style="fill:none; stroke:#000000;stroke-width:1" d="M543.0 373.0 L543.0 489.0" /><polygon style="fill:#000000; stroke:#000000;" points=" 548 479 543 489 538 479 543 481" /><path style="fill:none; stroke:#000000;stroke-width:1" d="M596.0 327.0 L699.0 327.0" /><polygon style="fill:#000000; stroke:#000000;" points=" 689 322 699 327 689 332 691 327" /><path style="fill:none; stroke:#000000;stroke-width:1" d="M596.0 527.0 L759.0 524.0" /><polygon style="fill:#000000; stroke:#000000;" points=" 749 519 759 524 749 529 751 524" /><path style="fill:none; stroke:#000000;stroke-width:1" d="M1476.0 306.0 L1539.0 304.0" /><polygon style="fill:#000000; stroke:#000000;" points=" 1529 299 1539 304 1529 309 1531 304" /><path style="fill:none; stroke:#000000;stroke-width:1" d="M1519.0 528.0 L1422.0 528.0 L1422.0 346.0" /><polygon style="fill:#000000; stroke:#000000;" points=" 1417 356 1422 346 1427 356 1422 354" /><path style="fill:none; stroke:#000000;stroke-width:1" d="M1332.0 678.0 L1332.0 316.0 L1369.0 313.0" /><polygon style="fill:#000000; stroke:#000000;" points=" 1359 309 1369 313 1359 319 1361 314" /><path style="fill:none; stroke:#000000;stroke-width:1" d="M1570.0 358.0 L1572.0 489.0" /><polygon style="fill:#000000; stroke:#000000;" points=" 1577 479 1572 489 1567 479 1572 481" /><path style="fill:none; stroke:#000000;stroke-width:1" d="M976.0 717.0 L1039.0 717.0" /><polygon style="fill:#000000; stroke:#000000;" points=" 1029 712 1039 717 1029 722 1031 717" /><path style="fill:none; stroke:#000000;stroke-width:1" d="M789.0 578.0 L789.0 717.0 L869.0 717.0" /><polygon style="fill:#000000; stroke:#000000;" points=" 859 712 869 717 859 722 861 717" /><path style="fill:none; stroke:#000000;stroke-width:1" d="M1600.0 303.0 L1700.0 301.0" /><polygon style="fill:#000000; stroke:#000000;" points=" 1690 296 1700 301 1690 306 1692 301" /><path style="fill:none; stroke:#000000;stroke-width:1" d="M1386.0 717.0 L1552.0 717.0 L1570.0 716.0" /><polygon style="fill:#000000; stroke:#000000;" points=" 1560 712 1570 716 1560 722 1562 716" /><path style="fill:none; stroke:#000000;stroke-width:1" d="M1100.0 717.0 L1279.0 717.0" /><polygon style="fill:#000000; stroke:#000000;" points=" 1269 712 1279 717 1269 722 1271 717" /><path style="fill:none; stroke:#000000;stroke-width:1" d="M820.0 524.0 L980.0 527.0" /><polygon style="fill:#000000; stroke:#000000;" points=" 970 522 980 527 970 532 972 527" /><path style="fill:none; stroke:#000000;stroke-width:1" d="M1068.0 654.0 L1068.0 627.0 L1179.0 627.0" /><polygon style="fill:#000000; stroke:#000000;" points=" 1169 622 1179 627 1169 632 1171 627" /><defs><linearGradient xmlns:xlink="http://www.w3.org/1999/xlink" xlink:href="#linearGradient66FF6696FF96B6FFB6" id="linearGradient66FF6696FF96B6FFB6_2022370373" x1="0" y1="83.0" x2="0" y2="118.0" gradientUnits="userSpaceOnUse" xlink:type="simple" xlink:actuate="onLoad" xlink:show="other" /><linearGradient id="linearGradient66FF6696FF96B6FFB6"><stop style="stop-color:#66FF66;stop-opacity:1;" offset="0.0" id="stop66FF66" /><stop style="stop-color:#96FF96;stop-opacity:1;" offset="0.5" id="stop96FF96" /><stop style="stop-color:#B6FFB6;stop-opacity:1;" offset="1.0" id="stopB6FFB6" /></linearGradient><linearGradient xmlns:xlink="http://www.w3.org/1999/xlink" xlink:href="#linearGradientFAFBFCFFFFCC" id="linearGradientFAFBFCFFFFCC_1984761124" x1="0" y1="47.0" x2="0" y2="107.0" gradientUnits="userSpaceOnUse" xlink:type="simple" xlink:actuate="onLoad" xlink:show="other" /><linearGradient id="linearGradientFAFBFCFFFFCC"><stop style="stop-color:#FAFBFC;stop-opacity:1;" offset="0.0" id="stopFAFBFC" /><stop style="stop-color:#FFFFCC;stop-opacity:1;" offset="1.0" id="stopFFFFCC" /></linearGradient><linearGradient xmlns:xlink="http://www.w3.org/1999/xlink" xlink:href="#linearGradientF8FBFEEDF5FCDEEDFAD4E7F8E2E5E9" id="linearGradientF8FBFEEDF5FCDEEDFAD4E7F8E2E5E9_1920108341" x1="0" y1="281.0" x2="0" y2="387.0" gradientUnits="userSpaceOnUse" xlink:type="simple" xlink:actuate="onLoad" xlink:show="other" /><linearGradient id="linearGradientF8FBFEEDF5FCDEEDFAD4E7F8E2E5E9"><stop style="stop-color:#F8FBFE;stop-opacity:1;" offset="0.0" id="stopF8FBFE" /><stop style="stop-color:#EDF5FC;stop-opacity:1;" offset="0.25" id="stopEDF5FC" /><stop style="stop-color:#DEEDFA;stop-opacity:1;" offset="0.5" id="stopDEEDFA" /><stop style="stop-color:#D4E7F8;stop-opacity:1;" offset="0.75" id="stopD4E7F8" /><stop style="stop-color:#E2E5E9;stop-opacity:1;" offset="1.0" id="stopE2E5E9" /></linearGradient><linearGradient xmlns:xlink="http://www.w3.org/1999/xlink" xlink:href="#linearGradientF8FBFEEDF5FCDEEDFAD4E7F8E2E5E9" id="linearGradientF8FBFEEDF5FCDEEDFAD4E7F8E2E5E9_930088735" x1="0" y1="490.0" x2="0" y2="596.0" gradientUnits="userSpaceOnUse" xlink:type="simple" xlink:actuate="onLoad" xlink:show="other" /><linearGradient xmlns:xlink="http://www.w3.org/1999/xlink" xlink:href="#linearGradientF8FBFEEDF5FCDEEDFAD4E7F8E2E5E9" id="linearGradientF8FBFEEDF5FCDEEDFAD4E7F8E2E5E9_406269296" x1="0" y1="270.0" x2="0" y2="376.0" gradientUnits="userSpaceOnUse" xlink:type="simple" xlink:actuate="onLoad" xlink:show="other" /><linearGradient xmlns:xlink="http://www.w3.org/1999/xlink" xlink:href="#linearGradientF8FBFEEDF5FCDEEDFAD4E7F8E2E5E9" id="linearGradientF8FBFEEDF5FCDEEDFAD4E7F8E2E5E9_101529471" x1="0" y1="490.0" x2="0" y2="596.0" gradientUnits="userSpaceOnUse" xlink:type="simple" xlink:actuate="onLoad" xlink:show="other" /><linearGradient xmlns:xlink="http://www.w3.org/1999/xlink" xlink:href="#linearGradientF8FBFEEDF5FCDEEDFAD4E7F8E2E5E9" id="linearGradientF8FBFEEDF5FCDEEDFAD4E7F8E2E5E9_1621115812" x1="0" y1="679.0" x2="0" y2="785.0" gradientUnits="userSpaceOnUse" xlink:type="simple" xlink:actuate="onLoad" xlink:show="other" /><linearGradient xmlns:xlink="http://www.w3.org/1999/xlink" xlink:href="#linearGradientFF6666FF9696FFB6B6" id="linearGradientFF6666FF9696FFB6B6_1465907280" x1="0" y1="310.0" x2="0" y2="345.0" gradientUnits="userSpaceOnUse" xlink:type="simple" xlink:actuate="onLoad" xlink:show="other" /><linearGradient id="linearGradientFF6666FF9696FFB6B6"><stop style="stop-color:#FF6666;stop-opacity:1;" offset="0.0" id="stopFF6666" /><stop style="stop-color:#FF9696;stop-opacity:1;" offset="0.5" id="stopFF9696" /><stop style="stop-color:#FFB6B6;stop-opacity:1;" offset="1.0" id="stopFFB6B6" /></linearGradient><linearGradient xmlns:xlink="http://www.w3.org/1999/xlink" xlink:href="#linearGradientFAFBFCFFFFCC" id="linearGradientFAFBFCFFFFCC_1981944678" x1="0" y1="250.0" x2="0" y2="310.0" gradientUnits="userSpaceOnUse" xlink:type="simple" xlink:actuate="onLoad" xlink:show="other" /><linearGradient xmlns:xlink="http://www.w3.org/1999/xlink" xlink:href="#linearGradientFF6666FF9696FFB6B6" id="linearGradientFF6666FF9696FFB6B6_427521042" x1="0" y1="284.0" x2="0" y2="319.0" gradientUnits="userSpaceOnUse" xlink:type="simple" xlink:actuate="onLoad" xlink:show="other" /><linearGradient xmlns:xlink="http://www.w3.org/1999/xlink" xlink:href="#linearGradientF8FBFEEDF5FCDEEDFAD4E7F8E2E5E9" id="linearGradientF8FBFEEDF5FCDEEDFAD4E7F8E2E5E9_2074388986" x1="0" y1="679.0" x2="0" y2="785.0" gradientUnits="userSpaceOnUse" xlink:type="simple" xlink:actuate="onLoad" xlink:show="other" /><linearGradient xmlns:xlink="http://www.w3.org/1999/xlink" xlink:href="#linearGradientFF6666FF9696FFB6B6" id="linearGradientFF6666FF9696FFB6B6_1393640358" x1="0" y1="699.0" x2="0" y2="734.0" gradientUnits="userSpaceOnUse" xlink:type="simple" xlink:actuate="onLoad" xlink:show="other" /><linearGradient xmlns:xlink="http://www.w3.org/1999/xlink" xlink:href="#linearGradientFAFBFCFFFFCC" id="linearGradientFAFBFCFFFFCC_894358401" x1="0" y1="470.0" x2="0" y2="530.0" gradientUnits="userSpaceOnUse" xlink:type="simple" xlink:actuate="onLoad" xlink:show="other" /><linearGradient xmlns:xlink="http://www.w3.org/1999/xlink" xlink:href="#linearGradientFF6666FF9696FFB6B6" id="linearGradientFF6666FF9696FFB6B6_2002254558" x1="0" y1="510.0" x2="0" y2="545.0" gradientUnits="userSpaceOnUse" xlink:type="simple" xlink:actuate="onLoad" xlink:show="other" /><linearGradient xmlns:xlink="http://www.w3.org/1999/xlink" xlink:href="#linearGradientFAFBFCFFFFCC" id="linearGradientFAFBFCFFFFCC_702703287" x1="0" y1="655.0" x2="0" y2="715.0" gradientUnits="userSpaceOnUse" xlink:type="simple" xlink:actuate="onLoad" xlink:show="other" /><linearGradient xmlns:xlink="http://www.w3.org/1999/xlink" xlink:href="#linearGradientFF6666FF9696FFB6B6" id="linearGradientFF6666FF9696FFB6B6_1882659934" x1="0" y1="610.0" x2="0" y2="645.0" gradientUnits="userSpaceOnUse" xlink:type="simple" xlink:actuate="onLoad" xlink:show="other" /></defs></svg>
