<?xml version="1.0" encoding="UTF-8"?>
<svg xmlns="http://www.w3.org/2000/svg" style="stroke-dasharray:none; shape-rendering:auto; font-family:'Arial'; text-rendering:auto; fill-opacity:1; color-interpolation:auto; color-rendering:auto; font-size:12; fill:black; stroke:black; image-rendering:auto; stroke-miterlimit:10; stroke-linecap:square; stroke-linejoin:miter; font-style:normal; stroke-width:1; stroke-dashoffset:0; font-weight:normal; stroke-opacity:1;" contentScriptType="text/ecmascript" preserveAspectRatio="xMidYMid meet" zoomAndPan="magnify" version="1.0" contentStyleType="text/css" xml:xlink="http://www.w3.org/1999/xlink" width="1991" height="721"><rect x="11" y="6" width="1980" height="715" ry="0" rx="0" style="stroke:#000000; fill:#FFFFFF" /><rect x="41" y="540" width="1950" height="181" ry="0" rx="0" style="stroke:#000000; fill:#ADC9AC" /><g componentSequence="5"><text x="-630" y="49" transform="rotate(270)" text-anchor="middle" style="font-weight:bold;font-size:10px;stroke:none; fill:#434343"><tspan dy="14" x="-630">TI</tspan></text></g><rect x="41" y="184" width="1950" height="178" ry="0" rx="0" style="stroke:#000000; fill:#D6E0D0" /><g componentSequence="4"><text x="-273" y="49" transform="rotate(270)" text-anchor="middle" style="font-weight:bold;font-size:10px;stroke:none; fill:#434343"><tspan dy="14" x="-273">Lider direto</tspan></text></g><rect x="41" y="362" width="1950" height="178" ry="0" rx="0" style="stroke:#000000; fill:#D0DAAE" /><g componentSequence="3"><text x="-451" y="49" transform="rotate(270)" text-anchor="middle" style="font-weight:bold;font-size:10px;stroke:none; fill:#434343"><tspan dy="14" x="-451">Gente e cultura</tspan></text></g><rect x="41" y="6" width="1950" height="178" ry="0" rx="0" style="stroke:#000000; fill:#82B0B7" /><g componentSequence="2"><text x="-95" y="49" transform="rotate(270)" text-anchor="middle" style="font-weight:bold;font-size:10px;stroke:none; fill:#434343"><tspan dy="14" x="-95">Gestor</tspan></text></g><g componentSequence="1"><text x="-363" y="19" transform="rotate(270)" text-anchor="middle" style="font-weight:bold;font-size:10px;stroke:none; fill:#434343"><tspan dy="14" x="-363">Recrutamento e Seleção</tspan></text></g><g sequence="1"><ellipse cx="117" cy="100" rx="17" ry="17" stroke-width="1" style="fill:url(#linearGradient66FF6696FF96B6FFB6_131533686);" stroke="336633" /></g><g sequence="2"><polygon points=" 250 77 280 47 310 77 280 107 250 77" style="fill:url(#linearGradientFAFBFCFFFFCC_152102396);" stroke="000000" /></g><g componentSequence="2"><text x="280" y="117" text-anchor="middle" style="font-weight:bold;font-size:10px;stroke:none; fill:#333399"><tspan dy="14" x="280">Validar</tspan><tspan dy="14" x="280">Gestor</tspan></text></g><g sequence="4"><rect x="490" y="210" width="106" height="76" ry="5" rx="5" style="fill:url(#linearGradientF8FBFEEDF5FCDEEDFAD4E7F8E2E5E9_221208582);" stroke="191970" /></g><g componentSequence="4"><text x="543" y="225" text-anchor="middle" style="font-weight:bold;font-size:10px;stroke:none; fill:#333399"><tspan dy="14" x="543">Analisando</tspan><tspan dy="14" x="543">necessidade</tspan></text></g><g sequence="6"><rect x="490" y="410" width="106" height="76" ry="5" rx="5" style="fill:url(#linearGradientF8FBFEEDF5FCDEEDFAD4E7F8E2E5E9_1210970055);" stroke="191970" /></g><g componentSequence="6"><text x="543" y="425" text-anchor="middle" style="font-weight:bold;font-size:10px;stroke:none; fill:#333399"><tspan dy="14" x="543">Selecionando</tspan><tspan dy="14" x="543">candidatos</tspan></text></g><g sequence="18"><rect x="1240" y="80" width="106" height="92" ry="5" rx="5" style="fill:url(#linearGradientF8FBFEEDF5FCDEEDFAD4E7F8E2E5E9_2006896911);" stroke="191970" /></g><g componentSequence="18"><text x="1293" y="95" text-anchor="middle" style="font-weight:bold;font-size:10px;stroke:none; fill:#333399"><tspan dy="14" x="1293">Aguardando</tspan><tspan dy="14" x="1293">novo</tspan><tspan dy="14" x="1293">colaborador</tspan></text></g><g sequence="24"><rect x="1240" y="580" width="106" height="92" ry="5" rx="5" style="fill:url(#linearGradientF8FBFEEDF5FCDEEDFAD4E7F8E2E5E9_2033181957);" stroke="191970" /></g><g componentSequence="24"><text x="1293" y="595" text-anchor="middle" style="font-weight:bold;font-size:10px;stroke:none; fill:#333399"><tspan dy="14" x="1293">Entregando</tspan><tspan dy="14" x="1293">equipamentos</tspan></text></g><g sequence="31"><rect x="780" y="400" width="106" height="92" ry="5" rx="5" style="fill:url(#linearGradientF8FBFEEDF5FCDEEDFAD4E7F8E2E5E9_259425654);" stroke="191970" /></g><g componentSequence="31"><text x="833" y="415" text-anchor="middle" style="font-weight:bold;font-size:10px;stroke:none; fill:#333399"><tspan dy="14" x="833">Checklist</tspan><tspan dy="14" x="833">novo</tspan><tspan dy="14" x="833">colaborador</tspan></text></g><g sequence="39"><ellipse cx="697" cy="247" rx="17" ry="17" stroke-width="3" style="fill:url(#linearGradientFF6666FF9696FFB6B6_671223944);" stroke="993333" /></g><g sequence="39"><polygon points=" 688 243 693 238 698 243 703 238 708 243 703 248 708 253 703 258 698 253 693 258 688 253 693 248" style="stroke:none; fill:#993333" /></g><g sequence="46"><polygon points=" 1060 410 1090 380 1120 410 1090 440 1060 410" style="fill:url(#linearGradientFAFBFCFFFFCC_697678382);" stroke="000000" /></g><g componentSequence="46"><text x="1090" y="450" text-anchor="middle" style="font-weight:bold;font-size:10px;stroke:none; fill:#333399"><tspan dy="14" x="1090">Validar</tspan><tspan dy="14" x="1090">Equipa</tspan><tspan dy="14" x="1090">mentos</tspan></text></g><g sequence="55"><ellipse cx="687" cy="507" rx="17" ry="17" stroke-width="3" style="fill:url(#linearGradientFF6666FF9696FFB6B6_789870036);" stroke="993333" /></g><g sequence="55"><polygon points=" 678 503 683 498 688 503 693 498 698 503 693 508 698 513 693 518 688 513 683 518 678 513 683 508" style="stroke:none; fill:#993333" /></g><g sequence="57"><rect x="1800" y="250" width="106" height="76" ry="5" rx="5" style="fill:url(#linearGradientF8FBFEEDF5FCDEEDFAD4E7F8E2E5E9_343017589);" stroke="191970" /></g><g componentSequence="57"><text x="1853" y="265" text-anchor="middle" style="font-weight:bold;font-size:10px;stroke:none; fill:#333399"><tspan dy="14" x="1853">Feedback do</tspan><tspan dy="14" x="1853">gestor</tspan></text></g><g sequence="95"><polygon points=" 1710 100 1740 70 1770 100 1740 130 1710 100" style="fill:url(#linearGradientFAFBFCFFFFCC_743230499);" stroke="000000" /></g><g componentSequence="95"><text x="1740" y="140" text-anchor="middle" style="font-weight:bold;font-size:10px;stroke:none; fill:#333399"><tspan dy="14" x="1740">Validar</tspan><tspan dy="14" x="1740">início</tspan></text></g><g sequence="97"><ellipse cx="1957" cy="117" rx="17" ry="17" stroke-width="3" style="fill:url(#linearGradientFF6666FF9696FFB6B6_680281934);" stroke="993333" /></g><g sequence="114"><rect x="1440" y="400" width="106" height="76" ry="5" rx="5" style="fill:url(#linearGradientF8FBFEEDF5FCDEEDFAD4E7F8E2E5E9_607796574);" stroke="191970" /></g><g componentSequence="114"><text x="1493" y="415" text-anchor="middle" style="font-weight:bold;font-size:10px;stroke:none; fill:#333399"><tspan dy="14" x="1493">Corrigindo</tspan><tspan dy="14" x="1493">materiais</tspan></text></g><g componentSequence="3"><text x="202" y="100" style="font-size:10px;font-weight:none;stroke:none; fill:#333399" text-anchor="left" /></g><g componentSequence="5"><text x="352" y="232" style="font-size:10px;font-weight:none;stroke:none; fill:#333399" text-anchor="left"><tspan dy="14" x="352">Gestor Identificado</tspan></text></g><g componentSequence="7"><text x="330" y="430" style="font-size:10px;font-weight:none;stroke:none; fill:#333399" text-anchor="left"><tspan dy="14" x="330">Sem Gestor</tspan></text></g><g componentSequence="41"><text x="550" y="327" style="font-size:10px;font-weight:none;stroke:none; fill:#333399" text-anchor="left"><tspan dy="14" x="550">Aprovar</tspan></text></g><g componentSequence="53"><text x="610" y="220" style="font-size:10px;font-weight:none;stroke:none; fill:#333399" text-anchor="left"><tspan dy="14" x="610">Reprovar</tspan></text></g><g componentSequence="96"><text x="1538" y="125" style="font-size:10px;font-weight:none;stroke:none; fill:#333399" text-anchor="left" /></g><g componentSequence="101"><text x="605" y="421" style="font-size:10px;font-weight:none;stroke:none; fill:#333399" text-anchor="left"><tspan dy="14" x="605">Contatar selecionado</tspan></text></g><g componentSequence="109"><text x="895" y="446" style="font-size:10px;font-weight:none;stroke:none; fill:#333399" text-anchor="left"><tspan dy="14" x="895">Entregar equipamentos</tspan></text></g><g componentSequence="110"><text x="1113" y="627" style="font-size:10px;font-weight:none;stroke:none; fill:#333399" text-anchor="left" /></g><g componentSequence="115"><text x="1750" y="405" style="font-size:10px;font-weight:none;stroke:none; fill:#333399" text-anchor="left" /></g><g componentSequence="116"><text x="1440" y="320" style="font-size:10px;font-weight:none;stroke:none; fill:#333399" text-anchor="left"><tspan dy="14" x="1440">Material enviado</tspan></text></g><g componentSequence="117"><text x="580" y="510" style="font-size:10px;font-weight:none;stroke:none; fill:#333399" text-anchor="left"><tspan dy="14" x="580">Cancelar</tspan></text></g><g componentSequence="118"><text x="1808" y="209" style="font-size:10px;font-weight:none;stroke:none; fill:#333399" text-anchor="left" /></g><g componentSequence="119"><text x="1921" y="192" style="font-size:10px;font-weight:none;stroke:none; fill:#333399" text-anchor="left" /></g><g componentSequence="120"><text x="1100" y="178" style="font-size:10px;font-weight:none;stroke:none; fill:#333399" text-anchor="left" /></g><g componentSequence="121"><text x="1303" y="376" style="font-size:10px;font-weight:none;stroke:none; fill:#333399" text-anchor="left" /></g><path style="fill:none; stroke:#000000;stroke-width:1" d="M134.0 100.0 L249.0 100.0" /><polygon style="fill:#000000; stroke:#000000;" points=" 239 95 249 100 239 105 241 100" /><path style="fill:none; stroke:#000000;stroke-width:1" d="M310.0 100.0 L342.0 100.0 L342.0 248.0 L489.0 248.0" /><polygon style="fill:#000000; stroke:#000000;" points=" 479 243 489 248 479 253 481 248" /><path style="fill:none; stroke:#000000;stroke-width:1" d="M279.0 155.0 L279.0 448.0 L489.0 448.0" /><polygon style="fill:#000000; stroke:#000000;" points=" 479 443 489 448 479 453 481 448" /><path style="fill:none; stroke:#000000;stroke-width:1" d="M543.0 286.0 L543.0 409.0" /><polygon style="fill:#000000; stroke:#000000;" points=" 548 399 543 409 538 399 543 401" /><path style="fill:none; stroke:#000000;stroke-width:1" d="M596.0 247.0 L680.0 247.0" /><polygon style="fill:#000000; stroke:#000000;" points=" 670 242 680 247 670 252 672 247" /><path style="fill:none; stroke:#000000;stroke-width:1" d="M596.0 447.0 L779.0 446.0" /><polygon style="fill:#000000; stroke:#000000;" points=" 769 441 779 446 769 451 771 446" /><path style="fill:none; stroke:#000000;stroke-width:1" d="M543.0 486.0 L543.0 507.0 L669.0 507.0" /><polygon style="fill:#000000; stroke:#000000;" points=" 659 502 669 507 659 512 661 507" /><path style="fill:none; stroke:#000000;stroke-width:1" d="M1346.0 125.0 L1709.0 124.0" /><polygon style="fill:#000000; stroke:#000000;" points=" 1699 119 1709 124 1699 129 1701 124" /><path style="fill:none; stroke:#000000;stroke-width:1" d="M1468.0 399.0 L1322.0 172.0" /><polygon style="fill:#000000; stroke:#000000;" points=" 1323 183 1322 172 1332 178 1326 179" /><path style="fill:none; stroke:#000000;stroke-width:1" d="M1090.0 379.0 L1090.0 126.0 L1239.0 126.0" /><polygon style="fill:#000000; stroke:#000000;" points=" 1229 121 1239 126 1229 131 1231 126" /><path style="fill:none; stroke:#000000;stroke-width:1" d="M1293.0 579.0 L1293.0 172.0" /><polygon style="fill:#000000; stroke:#000000;" points=" 1288 182 1293 172 1298 182 1293 180" /><path style="fill:none; stroke:#000000;stroke-width:1" d="M1090.0 504.0 L1090.0 627.0 L1239.0 626.0" /><polygon style="fill:#000000; stroke:#000000;" points=" 1229 621 1239 626 1229 631 1231 626" /><path style="fill:none; stroke:#000000;stroke-width:1" d="M886.0 445.0 L1059.0 442.0" /><polygon style="fill:#000000; stroke:#000000;" points=" 1049 437 1059 442 1049 447 1051 442" /><path style="fill:none; stroke:#000000;stroke-width:1" d="M1876.0 249.0 L1948.0 132.0" /><polygon style="fill:#000000; stroke:#000000;" points=" 1939 138 1948 132 1947 143 1944 139" /><path style="fill:none; stroke:#000000;stroke-width:1" d="M1770.0 168.0 L1826.0 249.0" /><polygon style="fill:#000000; stroke:#000000;" points=" 1824 238 1826 249 1816 244 1821 242" /><path style="fill:none; stroke:#000000;stroke-width:1" d="M1740.0 178.0 L1740.0 437.0 L1546.0 437.0" /><polygon style="fill:#000000; stroke:#000000;" points=" 1556 442 1546 437 1556 432 1554 437" /><defs><linearGradient xmlns:xlink="http://www.w3.org/1999/xlink" xlink:href="#linearGradient66FF6696FF96B6FFB6" id="linearGradient66FF6696FF96B6FFB6_131533686" x1="0" y1="83.0" x2="0" y2="118.0" gradientUnits="userSpaceOnUse" xlink:type="simple" xlink:actuate="onLoad" xlink:show="other" /><linearGradient id="linearGradient66FF6696FF96B6FFB6"><stop style="stop-color:#66FF66;stop-opacity:1;" offset="0.0" id="stop66FF66" /><stop style="stop-color:#96FF96;stop-opacity:1;" offset="0.5" id="stop96FF96" /><stop style="stop-color:#B6FFB6;stop-opacity:1;" offset="1.0" id="stopB6FFB6" /></linearGradient><linearGradient xmlns:xlink="http://www.w3.org/1999/xlink" xlink:href="#linearGradientFAFBFCFFFFCC" id="linearGradientFAFBFCFFFFCC_152102396" x1="0" y1="47.0" x2="0" y2="107.0" gradientUnits="userSpaceOnUse" xlink:type="simple" xlink:actuate="onLoad" xlink:show="other" /><linearGradient id="linearGradientFAFBFCFFFFCC"><stop style="stop-color:#FAFBFC;stop-opacity:1;" offset="0.0" id="stopFAFBFC" /><stop style="stop-color:#FFFFCC;stop-opacity:1;" offset="1.0" id="stopFFFFCC" /></linearGradient><linearGradient xmlns:xlink="http://www.w3.org/1999/xlink" xlink:href="#linearGradientF8FBFEEDF5FCDEEDFAD4E7F8E2E5E9" id="linearGradientF8FBFEEDF5FCDEEDFAD4E7F8E2E5E9_221208582" x1="0" y1="210.0" x2="0" y2="316.0" gradientUnits="userSpaceOnUse" xlink:type="simple" xlink:actuate="onLoad" xlink:show="other" /><linearGradient id="linearGradientF8FBFEEDF5FCDEEDFAD4E7F8E2E5E9"><stop style="stop-color:#F8FBFE;stop-opacity:1;" offset="0.0" id="stopF8FBFE" /><stop style="stop-color:#EDF5FC;stop-opacity:1;" offset="0.25" id="stopEDF5FC" /><stop style="stop-color:#DEEDFA;stop-opacity:1;" offset="0.5" id="stopDEEDFA" /><stop style="stop-color:#D4E7F8;stop-opacity:1;" offset="0.75" id="stopD4E7F8" /><stop style="stop-color:#E2E5E9;stop-opacity:1;" offset="1.0" id="stopE2E5E9" /></linearGradient><linearGradient xmlns:xlink="http://www.w3.org/1999/xlink" xlink:href="#linearGradientF8FBFEEDF5FCDEEDFAD4E7F8E2E5E9" id="linearGradientF8FBFEEDF5FCDEEDFAD4E7F8E2E5E9_1210970055" x1="0" y1="410.0" x2="0" y2="516.0" gradientUnits="userSpaceOnUse" xlink:type="simple" xlink:actuate="onLoad" xlink:show="other" /><linearGradient xmlns:xlink="http://www.w3.org/1999/xlink" xlink:href="#linearGradientF8FBFEEDF5FCDEEDFAD4E7F8E2E5E9" id="linearGradientF8FBFEEDF5FCDEEDFAD4E7F8E2E5E9_2006896911" x1="0" y1="80.0" x2="0" y2="186.0" gradientUnits="userSpaceOnUse" xlink:type="simple" xlink:actuate="onLoad" xlink:show="other" /><linearGradient xmlns:xlink="http://www.w3.org/1999/xlink" xlink:href="#linearGradientF8FBFEEDF5FCDEEDFAD4E7F8E2E5E9" id="linearGradientF8FBFEEDF5FCDEEDFAD4E7F8E2E5E9_2033181957" x1="0" y1="580.0" x2="0" y2="686.0" gradientUnits="userSpaceOnUse" xlink:type="simple" xlink:actuate="onLoad" xlink:show="other" /><linearGradient xmlns:xlink="http://www.w3.org/1999/xlink" xlink:href="#linearGradientF8FBFEEDF5FCDEEDFAD4E7F8E2E5E9" id="linearGradientF8FBFEEDF5FCDEEDFAD4E7F8E2E5E9_259425654" x1="0" y1="400.0" x2="0" y2="506.0" gradientUnits="userSpaceOnUse" xlink:type="simple" xlink:actuate="onLoad" xlink:show="other" /><linearGradient xmlns:xlink="http://www.w3.org/1999/xlink" xlink:href="#linearGradientFF6666FF9696FFB6B6" id="linearGradientFF6666FF9696FFB6B6_671223944" x1="0" y1="230.0" x2="0" y2="265.0" gradientUnits="userSpaceOnUse" xlink:type="simple" xlink:actuate="onLoad" xlink:show="other" /><linearGradient id="linearGradientFF6666FF9696FFB6B6"><stop style="stop-color:#FF6666;stop-opacity:1;" offset="0.0" id="stopFF6666" /><stop style="stop-color:#FF9696;stop-opacity:1;" offset="0.5" id="stopFF9696" /><stop style="stop-color:#FFB6B6;stop-opacity:1;" offset="1.0" id="stopFFB6B6" /></linearGradient><linearGradient xmlns:xlink="http://www.w3.org/1999/xlink" xlink:href="#linearGradientFAFBFCFFFFCC" id="linearGradientFAFBFCFFFFCC_697678382" x1="0" y1="380.0" x2="0" y2="440.0" gradientUnits="userSpaceOnUse" xlink:type="simple" xlink:actuate="onLoad" xlink:show="other" /><linearGradient xmlns:xlink="http://www.w3.org/1999/xlink" xlink:href="#linearGradientFF6666FF9696FFB6B6" id="linearGradientFF6666FF9696FFB6B6_789870036" x1="0" y1="490.0" x2="0" y2="525.0" gradientUnits="userSpaceOnUse" xlink:type="simple" xlink:actuate="onLoad" xlink:show="other" /><linearGradient xmlns:xlink="http://www.w3.org/1999/xlink" xlink:href="#linearGradientF8FBFEEDF5FCDEEDFAD4E7F8E2E5E9" id="linearGradientF8FBFEEDF5FCDEEDFAD4E7F8E2E5E9_343017589" x1="0" y1="250.0" x2="0" y2="356.0" gradientUnits="userSpaceOnUse" xlink:type="simple" xlink:actuate="onLoad" xlink:show="other" /><linearGradient xmlns:xlink="http://www.w3.org/1999/xlink" xlink:href="#linearGradientFAFBFCFFFFCC" id="linearGradientFAFBFCFFFFCC_743230499" x1="0" y1="70.0" x2="0" y2="130.0" gradientUnits="userSpaceOnUse" xlink:type="simple" xlink:actuate="onLoad" xlink:show="other" /><linearGradient xmlns:xlink="http://www.w3.org/1999/xlink" xlink:href="#linearGradientFF6666FF9696FFB6B6" id="linearGradientFF6666FF9696FFB6B6_680281934" x1="0" y1="100.0" x2="0" y2="135.0" gradientUnits="userSpaceOnUse" xlink:type="simple" xlink:actuate="onLoad" xlink:show="other" /><linearGradient xmlns:xlink="http://www.w3.org/1999/xlink" xlink:href="#linearGradientF8FBFEEDF5FCDEEDFAD4E7F8E2E5E9" id="linearGradientF8FBFEEDF5FCDEEDFAD4E7F8E2E5E9_607796574" x1="0" y1="400.0" x2="0" y2="506.0" gradientUnits="userSpaceOnUse" xlink:type="simple" xlink:actuate="onLoad" xlink:show="other" /></defs></svg>
